#define volume_muted_width 10
#define volume_muted_height 10
static unsigned char volume_muted_bits[] = {
   0x00, 0x01, 0x00, 0x01, 0xa0, 0x01, 0xec, 0x01, 0xae, 0x01, 0xbe, 0x01,
   0xac, 0x01, 0xa4, 0x01, 0x02, 0x01, 0x01, 0x00};
